<svg xmlns="http://www.w3.org/2000/svg" xmlns:xlink="http://www.w3.org/1999/xlink" width="1032.278" height="676.043" viewBox="0 0 1032.278 676.043"><defs><style>.a{fill:url(#a);}</style><linearGradient id="a" x1="0.5" x2="0.5" y2="1" gradientUnits="objectBoundingBox"><stop offset="0" stop-color="#69f6ad"/><stop offset="1" stop-color="#c1fdc9"/></linearGradient></defs><g transform="translate(495.744 287.397) rotate(-90)"><path class="a" d="M-1662.583,397.8c-10.425-12.509-8.339-32.315,4.17-42.74s32.314-8.339,42.739,4.17c51.079,61.5,124.048,94.86,202.23,94.86,142.812,0,259.563-116.751,259.563-259.563S-1270.633-65.031-1413.445-65.031l-1.043-60.46c175.127,0,320.024,144.9,320.024,320.023s-142.812,320.024-321.066,320.024C-1511.433,514.555-1601.081,471.817-1662.583,397.8Zm74.011-58.376c-10.424-12.509-8.339-32.315,4.17-42.739s32.315-8.34,42.739,4.169a166.043,166.043,0,0,0,127.175,59.418c91.734,0,165.746-75.054,165.746-165.745s-74.012-165.745-164.7-164.7l-1.043-60.46a226,226,0,0,1,226.206,226.206A226,226,0,0,1-1414.488,421.78,224.672,224.672,0,0,1-1588.572,339.429Zm75.054-62.546c-10.424-12.509-8.339-32.314,4.171-42.74s32.315-8.339,42.739,4.171c12.509,15.636,32.315,25.018,53.164,25.018,37.527,0,68.8-31.272,68.8-68.8s-31.272-68.8-69.843-72.969l2.085-58.376a130.351,130.351,0,0,1,130.3,130.3,130.351,130.351,0,0,1-130.3,130.3C-1452.014,323.792-1487.457,307.113-1513.518,276.883ZM-1770.507-197.7c0-175.127,142.812-320.023,321.067-320.023,95.9,0,185.551,42.739,247.054,116.751,10.425,12.509,8.339,32.315-4.17,42.739s-32.314,8.34-42.74-4.169c-51.078-61.5-124.047-94.861-202.229-94.861-142.811,0-259.564,116.751-259.564,259.563s116.752,259.564,259.564,259.564l1.042,60.46C-1625.61,122.324-1770.507-22.572-1770.507-197.7Zm93.818-1.042a226,226,0,0,1,226.206-226.206A224.67,224.67,0,0,1-1276.4-342.6c10.425,12.509,8.34,32.315-4.169,42.739s-32.315,8.339-42.74-4.17a166.043,166.043,0,0,0-127.175-59.418c-91.732,0-165.745,75.055-165.745,165.745s74.012,165.746,164.7,164.7l1.042,60.461A226,226,0,0,1-1676.689-198.742Zm93.819,2.085a130.351,130.351,0,0,1,130.3-130.3c39.612,0,75.055,16.679,101.115,46.909,10.424,12.509,8.339,32.314-4.17,42.739s-32.315,8.339-42.739-4.17c-12.509-15.637-32.315-25.019-53.164-25.019-37.527,0-68.8,31.273-68.8,68.8s31.272,68.8,69.842,72.97l-2.084,58.375A130.35,130.35,0,0,1-1582.87-196.656Z" transform="translate(1381.861 21.979)"/></g></svg>